<?xml version="1.0" standalone="no"?>
<!DOCTYPE svg PUBLIC "-//W3C//DTD SVG 20010904//EN"
 "http://www.w3.org/TR/2001/REC-SVG-20010904/DTD/svg10.dtd">
<svg version="1.0" xmlns="http://www.w3.org/2000/svg"
 width="70.000000pt" height="70.000000pt" viewBox="0 0 70.000000 70.000000"
 preserveAspectRatio="xMidYMid meet">
<metadata>
Created by potrace 1.11, written by Peter Selinger 2001-2013
</metadata>
<g transform="translate(0.000000,70.000000) scale(0.100000,-0.100000)"
fill="#000000" stroke="none">
<path d="M294 551 c-65 -40 -89 -98 -61 -147 7 -12 37 -41 67 -65 68 -53 87
-76 95 -111 9 -39 0 -61 -34 -81 -41 -24 -49 -22 -90 22 -26 28 -41 37 -50 31
-37 -22 39 -80 106 -80 85 0 148 45 158 114 9 60 -5 86 -89 157 -69 57 -76 67
-76 99 0 44 15 60 56 60 23 0 38 -7 51 -26 13 -17 24 -23 36 -18 25 9 21 22
-15 44 -42 26 -113 26 -154 1z"/>
</g>
</svg>
